<svg xmlns="http://www.w3.org/2000/svg" viewBox="0 0 512 512"><path fill="#f0f0f0" d="M0 0h512v512H0z"/><g fill="#d80027"><path d="M0 0h512v64H0zM0 128h512v64H0zM0 256h512v64H0zM0 384h512v64H0z"/></g><path fill="#2e52b2" d="M0 0h256v276H0z"/><g fill="#f0f0f0"><path d="m47.6 138-4 12.3H31l10.2 7.4-4 12.3 10.2-7.4 10.2 7.4-4-12.3 10.2-7.4H51.5zM47.6 69l-4 12.3H31l10.2 7.4-4 12.3 10.2-7.4 10.2 7.4-4-12.3 10.2-7.4H51.5zM47.6 207l-4 12.3H31l10.2 7.4-4 12.3 10.2-7.4 10.2 7.4-4-12.3 10.2-7.4H51.5zM104.8 103.5l-4 12.3H88.2l10.2 7.4-4 12.3 10.2-7.4 10.2 7.4-4-12.3 10.2-7.4h-12.6zM104.8 34.5l-4 12.3H88.2l10.2 7.4-4 12.3 10.2-7.4 10.2 7.4-4-12.3 10.2-7.4h-12.6zM104.8 172.5l-4 12.3H88.2l10.2 7.4-4 12.3 10.2-7.4 10.2 7.4-4-12.3 10.2-7.4h-12.6zM162 138l-4 12.3h-12.6l10.2 7.4-4 12.3 10.2-7.4 10.2 7.4-4-12.3 10.2-7.4h-12.6zM162 69l-4 12.3h-12.6l10.2 7.4-4 12.3 10.2-7.4 10.2 7.4-4-12.3 10.2-7.4h-12.6zM162 207l-4 12.3h-12.6l10.2 7.4-4 12.3 10.2-7.4 10.2 7.4-4-12.3 10.2-7.4h-12.6zM219.2 103.5l-4 12.3h-12.6l10.2 7.4-4 12.3 10.2-7.4 10.2 7.4-4-12.3 10.2-7.4h-12.6zM219.2 34.5l-4 12.3h-12.6l10.2 7.4-4 12.3 10.2-7.4 10.2 7.4-4-12.3 10.2-7.4h-12.6zM219.2 172.5l-4 12.3h-12.6l10.2 7.4-4 12.3 10.2-7.4 10.2 7.4-4-12.3 10.2-7.4h-12.6z"/></g></svg>